<svg viewBox="0 0 800 600" xmlns="http://www.w3.org/2000/svg">
  <style>
    .background { fill: #f0f2f5; }
    .primary-color { fill: #3d99f0; } /* Modern blue */
    .secondary-color { fill: #f9a825; } /* Vibrant yellow */
    .accent-color { fill: #ea4335; } /* Warm red */
    .icon-color { fill: #263238; } /* Dark grey for icons */
    .text-color { fill: #263238; }
    .glow { filter: url(#glow); }
  </style>

  <defs>
    <filter id="glow">
      <feGaussianBlur stdDeviation="5" result="coloredBlur"/>
      <feMerge>
        <feMergeNode in="coloredBlur"/>
        <feMergeNode in="SourceGraphic"/>
      </feMerge>
    </filter>
  </defs>

  <!-- Background -->
  <rect width="800" height="600" class="background" />

  <!-- Central Abstract Form (representing AI) -->
  <g transform="translate(400, 300)">
    <circle cx="0" cy="0" r="70" class="primary-color glow" />
    <circle cx="0" cy="0" r="40" class="secondary-color glow" />
    <circle cx="0" cy="0" r="10" class="accent-color glow" />

    <!-- Connecting Lines (representing data flow/processing) -->
    <line x1="0" y1="0" x2="120" y2="-50" stroke="#bdbdbd" stroke-width="2" stroke-dasharray="4 2"/>
    <line x1="0" y1="0" x2="120" y2="50" stroke="#bdbdbd" stroke-width="2" stroke-dasharray="4 2"/>
    <line x1="0" y1="0" x2="-120" y2="-50" stroke="#bdbdbd" stroke-width="2" stroke-dasharray="4 2"/>
    <line x1="0" y1="0" x2="-120" y2="50" stroke="#bdbdbd" stroke-width="2" stroke-dasharray="4 2"/>
  </g>

  <!-- Niche Surreal Dreamscape Elements -->

  <!-- Floating Island/Cloud -->
  <path d="M150 150 Q 200 100 250 150 T 350 150 Q 400 100 450 150 L 450 250 Q 400 200 350 250 T 250 250 Q 200 200 150 250 Z" class="primary-color" opacity="0.8"/>

  <!-- Abstract Geometric Shapes (surreal elements) -->
  <g transform="translate(100, 450) rotate(-30)">
    <rect width="50" height="50" x="-25" y="-25" class="secondary-color" opacity="0.7"/>
    <circle cx="0" cy="0" r="20" class="accent-color" opacity="0.7"/>
  </g>

  <g transform="translate(600, 400) rotate(45)">
    <polygon points="0,-30 20,30 -20,30" class="accent-color" opacity="0.7"/>
    <rect width="40" height="40" x="-20" y="-20" class="primary-color" opacity="0.7"/>
  </g>

  <!-- Stylized Eye/Lens (representing generation/vision) -->
  <g transform="translate(680, 180)">
    <circle cx="0" cy="0" r="30" class="secondary-color" />
    <circle cx="0" cy="0" r="15" class="primary-color" />
    <circle cx="5" cy="5" r="5" class="icon-color" />
  </g>

  <!-- Wavy Lines (representing fluidity/dreamlike state) -->
  <path d="M50 500 Q 150 550 250 500 T 450 500 T 650 500" stroke="#bdbdbd" stroke-width="4" fill="none" opacity="0.6"/>
  <path d="M50 550 Q 150 500 250 550 T 450 550 T 650 550" stroke="#bdbdbd" stroke-width="4" fill="none" opacity="0.6"/>

  <!-- Text - Implicitly represented by the overall visual metaphor -->
  <!-- If actual text were required, it would be added here. -->

  <!-- Subtle Gradient overlay for depth (optional) -->
  <defs>
    <radialGradient id="subtleGlow" cx="50%" cy="50%" r="70%" fx="50%" fy="50%">
      <stop offset="0%" style="stop-color:#ffffff; stop-opacity:0.1"/>
      <stop offset="100%" style="stop-color:#ffffff; stop-opacity:0"/>
    </radialGradient>
  </defs>
  <rect width="800" height="600" fill="url(#subtleGlow)" opacity="0.3"/>

</svg>